<svg width="17" height="17" viewBox="0 0 17 17" fill="none" xmlns="http://www.w3.org/2000/svg">
<path d="M16.15 10.2C15.64 10.2 15.3 10.54 15.3 11.05V14.45C15.3 14.96 14.96 15.3 14.45 15.3L2.55 15.3C2.04 15.3 1.7 14.96 1.7 14.45L1.7 11.05C1.7 10.54 1.36 10.2 0.850001 10.2C0.34 10.2 0 10.54 0 11.05L0 14.45C0 15.895 1.105 17 2.55 17L14.45 17C15.895 17 17 15.895 17 14.45V11.05C17 10.54 16.66 10.2 16.15 10.2ZM5.695 4.845L7.65001 2.89L7.65001 11.05C7.65001 11.56 7.99001 11.9 8.50001 11.9C9.01001 11.9 9.35001 11.56 9.35001 11.05L9.35001 2.89L11.305 4.845C11.645 5.185 12.155 5.185 12.495 4.845C12.835 4.505 12.835 3.995 12.495 3.655L9.09501 0.255C8.75501 -0.0850001 8.24501 -0.0850001 7.90501 0.255L4.505 3.655C4.165 3.995 4.165 4.505 4.505 4.845C4.845 5.185 5.355 5.185 5.695 4.845Z" fill="white"/>
</svg>
